<svg xmlns="http://www.w3.org/2000/svg" xmlns:xlink="http://www.w3.org/1999/xlink" width="20" height="20" viewBox="0 0 20 20"><defs><path id="e07va" d="M1464 106.05v11.9c0 .56-.2 1.04-.6 1.45-.4.4-.89.6-1.45.6h-11.9c-.56 0-1.04-.2-1.45-.6-.4-.4-.6-.89-.6-1.45v-11.9c0-.56.2-1.04.6-1.45.4-.4.89-.6 1.45-.6h11.9c.56 0 1.04.2 1.45.6.4.4.6.89.6 1.45zm-11.2 5.92c0 .86.32 1.6.94 2.2.63.6 1.39.91 2.27.91.89 0 1.65-.3 2.28-.9.63-.62.94-1.35.94-2.21 0-.86-.31-1.6-.94-2.2a3.16 3.16 0 0 0-2.28-.92c-.88 0-1.64.3-2.27.91-.62.61-.94 1.35-.94 2.2zm9.39 5.55v-6.75h-1.4a4.61 4.61 0 0 1-.46 3.79 5 5 0 0 1-4.31 2.4 4.87 4.87 0 0 1-3.52-1.41 4.57 4.57 0 0 1-1.25-4.78h-1.47v6.75a.62.62 0 0 0 .64.64h11.13c.18 0 .33-.06.45-.19a.6.6 0 0 0 .19-.45zm0-11.02a.7.7 0 0 0-.21-.5.69.69 0 0 0-.51-.22h-1.81c-.2 0-.37.07-.51.21a.7.7 0 0 0-.21.5v1.73a.7.7 0 0 0 .72.72h1.8a.7.7 0 0 0 .52-.21.7.7 0 0 0 .2-.51z"/></defs><g><g transform="translate(-1446 -102)"><use fill="#a4a7a9" xlink:href="#e07va"/></g></g></svg>