<svg xmlns="http://www.w3.org/2000/svg" xmlns:xlink="http://www.w3.org/1999/xlink" width="20" height="17" viewBox="0 0 20 17"><defs><path id="b6gia" d="M998.87 37c-2.74 0-5.5-1.16-7.59-3.17-2.8-2.71-3.94-6.58-2.9-9.85.04-.15.1-.3.15-.42l.01-.04a4 4 0 0 1 .06-.13c.1-.23.21-.41.36-.54a4.77 4.77 0 0 1 2.41-.85c.4 0 .77.1 1.08.28 1.82 1.1 2.94 2.71 2.84 4.12-.01.16-.1.3-.23.4l-2.47 1.61c.04.36.27 1.2 1.38 2.46a4.63 4.63 0 0 0 3.2 1.62l1.57-2.4a.54.54 0 0 1 .37-.23c.13-.02.27-.02.4-.02 1.34 0 2.9.93 4.08 2.42a2 2 0 0 1 .33 1.81 4.28 4.28 0 0 1-1.46 2.2 8.8 8.8 0 0 1-3.6.73zm-9.21-13.36c0 .01-.04.05-.07.13l-.04.1-.02.06-.01.03c-.04.09-.08.18-.1.29l-.01.02c-.93 2.92.1 6.38 2.63 8.82a9.97 9.97 0 0 0 6.83 2.87c1.1 0 2.14-.2 3.09-.62.3-.27 1.4-1.67.78-2.45-.97-1.23-2.23-2.02-3.22-2.02h-.02l-1.59 2.41a.55.55 0 0 1-.4.24h-.19c-.56 0-2.53-.14-4.16-1.98-1.87-2.1-1.66-3.37-1.63-3.5.03-.14.1-.26.22-.33l2.47-1.62c-.08-.96-1-2.13-2.34-2.93a.97.97 0 0 0-.5-.12c-.7 0-1.54.48-1.72.6z"/></defs><g><g transform="translate(-986 -21)"><use fill="#3498db" xlink:href="#b6gia"/></g></g></svg>